/* XPM */
static char * bonus_crossair_xpm[] = {
"64 64 11 1",
" 	c None",
".	c #000000",
"+	c #010301",
"@	c #081208",
"#	c #09150A",
"$	c #3B873E",
"%	c #808C40",
"&	c #DC4D4D",
"*	c #EF1616",
"=	c #9A813C",
"-	c #987134",
"                          ............                          ",
"                          .+@######@+.                          ",
"                          .@$%&&&&%$@.                          ",
"                          .#%******%#.                          ",
"                          .#&******&#.                          ",
"                          .#&******&#.                          ",
"                          .#&******&#.                          ",
"                          .#&******&#.                          ",
"                          .#&******&#.                          ",
"                          .#&******&#.                          ",
"                          .#&******&#.                          ",
"                          .#&******&#.                          ",
"                          .#&******&#.                          ",
"                          .#&******&#.                          ",
"                          .#&******&#.                          ",
"                          .#&******&#.                          ",
"                          .#&******&#.                          ",
"                          .#&******&#.                          ",
"                          .#&******&#.                          ",
"                          .#&******&#.                          ",
"                          .#%******%#.                          ",
"                          .@$%&&&&%$@.                          ",
"                          .+@######@+.                          ",
"                          ............                          ",
"                                                                ",
"                                                                ",
"........................                ........................",
".+@##################@+.                .+@##################@+.",
".@$=&&&&&&&&&&&&&&&&=$@.    ........    .@$=&&&&&&&&&&&&&&&&=$@.",
".#=******************=#.    .+@##@+.    .#=******************=#.",
".#&******************&#.    .@-**-@.    .#&******************&#.",
".#&******************&#.    .#****#.    .#&******************&#.",
".#&******************&#.    .#****#.    .#&******************&#.",
".#&******************&#.    .@-**-@.    .#&******************&#.",
".#=******************=#.    .+@##@+.    .#=******************=#.",
".@$=&&&&&&&&&&&&&&&&=$@.    ........    .@$=&&&&&&&&&&&&&&&&=$@.",
".+@##################@+.                .+@##################@+.",
"........................                ........................",
"                                                                ",
"                                                                ",
"                          ............                          ",
"                          .+@######@+.                          ",
"                          .@$=&&&&=$@.                          ",
"                          .#=******=#.                          ",
"                          .#&******&#.                          ",
"                          .#&******&#.                          ",
"                          .#&******&#.                          ",
"                          .#&******&#.                          ",
"                          .#&******&#.                          ",
"                          .#&******&#.                          ",
"                          .#&******&#.                          ",
"                          .#&******&#.                          ",
"                          .#&******&#.                          ",
"                          .#&******&#.                          ",
"                          .#&******&#.                          ",
"                          .#&******&#.                          ",
"                          .#&******&#.                          ",
"                          .#&******&#.                          ",
"                          .#&******&#.                          ",
"                          .#&******&#.                          ",
"                          .#=******=#.                          ",
"                          .@$=&&&&=$@.                          ",
"                          .+@######@+.                          ",
"                          ............                          "};
